<svg xmlns="http://www.w3.org/2000/svg" viewBox="0 0 248 204">
  <path
    fill="#1d9bf0"
    d="M221.95 51.29c.15 2.17.15 4.34.15 6.53 0 66.73-50.8 143.69-143.69 143.69v-.04A142.9 142.9 0 0 1 1 178.82a101.34 101.34 0 0 0 12.04.72 101.27 101.27 0 0 0 62.7-21.58 50.57 50.57 0 0 1-47.17-35.1 50.38 50.38 0 0 0 22.8-.87 50.53 50.53 0 0 1-40.51-49.55v-.64a50.16 50.16 0 0 0 22.91 6.32A50.54 50.54 0 0 1 18.14 10.7a143.34 143.34 0 0 0 104.08 52.76 50.53 50.53 0 0 1 86.02-46.07 101.18 101.18 0 0 0 32.06-12.26 50.69 50.69 0 0 1-22.2 27.92A100.54 100.54 0 0 0 247 25.13a102.54 102.54 0 0 1-25.05 26.16z"
  />
</svg>
